<svg xmlns="http://www.w3.org/2000/svg" height="24px" viewBox="0 -960 960 960" width="24px" fill="#e3e3e3"><path d="M344.44-159.39q-63.56-27.39-110.57-74.35-47.02-46.96-74.44-110.43Q132-407.65 132-479.83q0-72.17 27.39-135.73 27.39-63.56 74.35-110.57 46.96-47.02 110.43-74.44Q407.65-828 479.83-828q72.17 0 135.73 27.39 63.56 27.39 110.57 74.35 47.02 46.96 74.44 110.43Q828-552.35 828-480.17q0 72.17-27.39 135.73-27.39 63.56-74.35 110.57-46.96 47.02-110.43 74.44Q552.35-132 480.17-132q-72.17 0-135.73-27.39ZM440-162v-78q-33 0-56.5-23.5T360-320v-40L168-552q-3 18-5.5 36t-2.5 36q0 121 79.5 212T440-162Zm276-102q41-45 62.5-100.5T800-480.38q0-98.61-54-180.11Q692-742 600-778v18q0 33-23.5 56.5T520-680h-80v80q0 17-11.5 28.5T400-560h-80v80h240q17 0 28.5 11.5T600-440v120h40q26 0 47 15.5t29 40.5Z"/></svg>